# xmcd CD database file
#
# Track frame offsets:
#	150
#	21861
#	50886
#	72182
#	98599
#	125338
#	150162
#	173929
#	205487
#	226481
#
# Disc length: 3554 seconds
#
# Revision: 0
# Processed by: cddbd v1.5.2PL0 Copyright (c) Steve Scherf et al.
# Submitted via: CDex 1.70beta2
#
DISCID=810de00a
DTITLE=Cyrus Chestnut - Journeys
DYEAR=2010
DGENRE=Jazz
TTITLE0=Smitty's Joint
TTITLE1=Lover
TTITLE2=Eyes of an angel
TTITLE3=Little Jon
TTITLE4=New Light
TTITLE5=Journeys
TTITLE6=The Flowers On The Terrace
TTITLE7=Yu's Blues
TTITLE8=In the still hours
TTITLE9=Goliath
EXTD=YEAR: 2010
EXTT0=
EXTT1=
EXTT2=
EXTT3=
EXTT4=
EXTT5=
EXTT6=
EXTT7=
EXTT8=
EXTT9=
PLAYORDER=
